<?xml version="1.0" encoding="UTF-8"?>
<svg version="1.1" xmlns="http://www.w3.org/2000/svg" width="512" height="512">
<path d="M0 0 C1.27810547 -0.05607422 1.27810547 -0.05607422 2.58203125 -0.11328125 C9.51994711 1.0205011 13.47353899 8.28489811 17.375 13.5625 C18.03701416 14.45275879 18.69902832 15.34301758 19.38110352 16.26025391 C24.67165352 23.45272804 29.56573 30.80926965 34.10839844 38.49365234 C35.13979078 40.23208514 36.19819692 41.95440575 37.2578125 43.67578125 C50.97287158 66.56110533 58.90620046 92.11531302 63.1875 118.3125 C63.38601563 119.4984375 63.58453125 120.684375 63.7890625 121.90625 C63.92054688 122.7003125 64.05203125 123.494375 64.1875 124.3125 C65.59322266 123.33023438 65.59322266 123.33023438 67.02734375 122.328125 C97.45606296 101.5861633 147.19346351 79.84310895 185.1875 85.3125 C188.92780185 86.91548651 189.91908465 87.90987698 192.1875 91.3125 C197.42905202 133.36681274 175.42110382 184.04041692 151.1875 217.3125 C152.31414062 217.42464844 153.44078125 217.53679687 154.6015625 217.65234375 C169.47269119 219.53001151 183.83490449 225.77292315 197.1875 232.3125 C197.9594873 232.68890625 198.73147461 233.0653125 199.52685547 233.453125 C211.73121254 239.47377391 223.09158901 246.44476004 234.1875 254.3125 C234.92758301 254.8369873 235.66766602 255.36147461 236.43017578 255.90185547 C238.61094294 257.4609106 240.77728978 259.03760901 242.9375 260.625 C243.58098389 261.09212402 244.22446777 261.55924805 244.88745117 262.04052734 C255.25151963 269.81392118 255.25151963 269.81392118 256.77148438 275.49536133 C257.00469751 278.75039937 256.86497161 281.22042383 255.12036133 284.03271484 C250.91905798 288.83565586 246.25402548 292.65840309 241.125 296.4375 C240.2486792 297.08565674 239.3723584 297.73381348 238.46948242 298.40161133 C195.72204902 329.58231597 145.50841335 348.51796241 92.18530273 340.72265625 C77.49872814 338.36078407 63.72251972 334.01220804 49.87109375 328.66796875 C46.52885167 327.19738787 46.52885167 327.19738787 44.1875 327.3125 C43.31351562 329.05660156 43.31351562 329.05660156 42.421875 330.8359375 C33.94560846 347.49025755 23.91060518 362.76528456 12.1875 377.3125 C11.75034668 377.85841797 11.31319336 378.40433594 10.86279297 378.96679688 C6.64452187 384.15519321 6.64452187 384.15519321 2.98046875 384.55078125 C2.12066406 384.57527344 1.26085937 384.59976562 0.375 384.625 C-0.47707031 384.66238281 -1.32914063 384.69976562 -2.20703125 384.73828125 C-9.03384171 383.62265555 -12.9566696 376.56866932 -16.8125 371.375 C-17.79174438 370.06112305 -17.79174438 370.06112305 -18.79077148 368.72070312 C-28.32267222 355.73932688 -37.14957108 342.00745282 -43.8125 327.3125 C-45.09900383 327.74074877 -46.38544918 328.1691732 -47.671875 328.59765625 C-48.49751953 328.8723877 -49.32316406 329.14711914 -50.17382812 329.43017578 C-51.87711055 329.99972266 -53.57904463 330.57332546 -55.27929688 331.15185547 C-104.97434361 348.02591985 -153.79829712 344.78237678 -200.9375 321.5625 C-248.17222204 297.59305592 -248.17222204 297.59305592 -255.8125 282.3125 C-256.52986916 278.38327346 -256.74743382 274.77031746 -254.53564453 271.3215332 C-250.13892584 266.46236431 -245.50763232 262.44266167 -240.1875 258.625 C-238.9502417 257.72998779 -238.9502417 257.72998779 -237.68798828 256.81689453 C-214.25869082 240.09050167 -180.83486507 217.3125 -150.8125 217.3125 C-151.72128906 216.00152344 -151.72128906 216.00152344 -152.6484375 214.6640625 C-175.0763084 181.92624128 -197.62239284 132.1786954 -191.8125 91.3125 C-189.65539341 87.94374205 -188.6304458 86.5851486 -184.8125 85.3125 C-177.06882262 84.79415381 -169.51252354 85.66948035 -161.875 86.875 C-160.76036377 87.05063477 -159.64572754 87.22626953 -158.49731445 87.40722656 C-125.96254924 92.80060549 -93.81699642 102.88069306 -66.8125 122.3125 C-65.8225 122.9725 -64.8325 123.6325 -63.8125 124.3125 C-63.73322266 123.75191895 -63.65394531 123.19133789 -63.57226562 122.61376953 C-60.23938775 99.81301802 -54.0800929 77.98266323 -43.8125 57.3125 C-43.43899414 56.54921387 -43.06548828 55.78592773 -42.68066406 54.99951172 C-34.22900439 37.86044666 -23.79424937 22.18066733 -11.8125 7.3125 C-11.37534668 6.76658203 -10.93819336 6.22066406 -10.48779297 5.65820312 C-7.02027766 1.39322269 -5.44600703 0.15513363 0 0 Z M-0.8125 30.3125 C-32.56067125 65.27037648 -43.34131791 114.65297658 -41.8125 160.3125 C-40.43279022 182.25386885 -32.5435194 203.80355445 -22.8125 223.3125 C-22.29187988 224.36219971 -22.29187988 224.36219971 -21.76074219 225.43310547 C-15.89114724 237.14134352 -8.84429209 247.96852534 -0.8125 258.3125 C3.53802867 256.80272749 5.43217386 253.51496628 7.8125 249.8125 C8.2448999 249.14887451 8.6772998 248.48524902 9.12280273 247.80151367 C34.44525512 208.3637062 49.84839582 161.09293978 40.28515625 113.96875 C33.5720605 84.5260225 21.32558293 53.39256623 1.1875 30.3125 C0.5275 30.3125 -0.1325 30.3125 -0.8125 30.3125 Z M-168.8125 109.3125 C-162.84313476 149.64697173 -149.3921133 186.6743825 -120.8125 216.3125 C-119.73935547 217.48039062 -119.73935547 217.48039062 -118.64453125 218.671875 C-96.56371995 242.03693612 -64.54022822 254.06598803 -33.98046875 261.5390625 C-33.27559326 261.71260254 -32.57071777 261.88614258 -31.84448242 262.06494141 C-29.57358264 262.34160756 -27.97992649 261.99573367 -25.8125 261.3125 C-26.11317383 260.83756104 -26.41384766 260.36262207 -26.72363281 259.87329102 C-44.42715309 231.68883177 -60.27540951 199.67198792 -62.10546875 165.8046875 C-62.51785773 158.7357409 -63.18253955 153.996146 -68.5 148.9375 C-70.58284817 147.32051644 -72.64592838 145.80276438 -74.8125 144.3125 C-75.96750727 143.47534229 -77.1224537 142.63810065 -78.27734375 141.80078125 C-103.25038546 124.12999622 -137.75033411 109.09623011 -168.8125 109.3125 Z M64.1875 154.3125 C63.61626744 156.90559984 63.61626744 156.90559984 63.29296875 159.96484375 C63.1448877 161.12459717 62.99680664 162.28435059 62.84423828 163.47924805 C62.68938965 164.72359619 62.53454102 165.96794434 62.375 167.25 C60.80836036 178.92717164 58.69389818 190.06963902 55.1875 201.3125 C54.98463379 201.98651855 54.78176758 202.66053711 54.57275391 203.35498047 C48.27371701 223.98045497 37.88232274 243.28681849 26.1875 261.3125 C29.44441273 262.37627598 31.53551472 262.22471827 34.8359375 261.37890625 C36.20347168 261.03037598 36.20347168 261.03037598 37.59863281 260.67480469 C38.57670898 260.41086914 39.55478516 260.14693359 40.5625 259.875 C41.58182617 259.60204102 42.60115234 259.32908203 43.65136719 259.04785156 C72.38587175 251.14032843 97.5440092 239.04506947 119.1875 218.3125 C119.99445313 217.56871094 120.80140625 216.82492187 121.6328125 216.05859375 C147.32672412 191.61313238 166.69972134 149.67574384 168.28173828 114.19921875 C168.28459511 112.57001214 168.24163263 110.94080955 168.1875 109.3125 C132.72420508 108.24301064 89.0137168 129.4862832 64.1875 154.3125 Z M124.546875 242.640625 C102.39384508 267.72783107 60.10303362 277.62475828 29.1875 284.3125 C26.18672853 284.97574472 23.18714404 285.64416927 20.1875 286.3125 C41.70915325 304.49746282 72.56136038 315.85550734 100.1875 319.3125 C101.18652344 319.44140625 102.18554688 319.5703125 103.21484375 319.703125 C143.08488829 324.05050432 184.10881241 309.50134601 216.1875 286.3125 C217.23164063 285.56355469 218.27578125 284.81460938 219.3515625 284.04296875 C221.97451759 282.14713665 224.58619449 280.23787573 227.1875 278.3125 C223.61283619 274.52322223 219.86272473 271.4856029 215.5 268.625 C214.84918457 268.19711182 214.19836914 267.76922363 213.52783203 267.32836914 C194.29033171 254.86838816 173.53856369 244.70431344 151.1875 239.3125 C150.39005371 239.10238281 149.59260742 238.89226562 148.77099609 238.67578125 C135.36666606 235.14361707 135.36666606 235.14361707 124.546875 242.640625 Z M-226.8125 277.3125 C-223.23776679 281.10185134 -219.48751527 284.13897185 -215.125 287 C-214.15203979 287.64074463 -214.15203979 287.64074463 -213.15942383 288.29443359 C-175.65992095 312.61194252 -133.25710994 326.31855892 -88.48046875 317.5 C-63.58875111 312.18816246 -41.11540483 300.9942191 -19.8125 287.3125 C-22.76995526 285.34086316 -24.31856321 284.84945285 -27.72265625 284.19921875 C-28.70314941 284.00618164 -29.68364258 283.81314453 -30.69384766 283.61425781 C-31.74362793 283.41155273 -32.7934082 283.20884766 -33.875 283 C-68.85864117 275.91272955 -104.06916419 262.84424407 -130.24609375 237.640625 C-148.63376602 222.05007993 -212.33508971 266.25110786 -226.8125 277.3125 Z M-4.76953125 302.83203125 C-5.55263672 303.35990234 -6.33574219 303.88777344 -7.14257812 304.43164062 C-7.96177734 304.99044922 -8.78097656 305.54925781 -9.625 306.125 C-19.53449033 312.83941125 -19.53449033 312.83941125 -23.8125 315.3125 C-22.2611808 320.8126317 -19.67784443 325.41632483 -16.8125 330.3125 C-16.33063232 331.14177002 -15.84876465 331.97104004 -15.35229492 332.82543945 C-10.9359537 340.3132664 -6.03418773 347.36912781 -0.8125 354.3125 C2.24652189 352.99606129 3.83860142 351.83129504 5.6328125 349.03125 C6.28189575 348.02783569 6.28189575 348.02783569 6.9440918 347.00415039 C7.3956665 346.28090576 7.84724121 345.55766113 8.3125 344.8125 C8.78534424 344.06798584 9.25818848 343.32347168 9.74536133 342.55639648 C13.28232628 336.92040532 16.62655041 331.18144163 19.875 325.375 C20.525896 324.21291016 20.525896 324.21291016 21.18994141 323.02734375 C23.39661981 319.38549117 23.39661981 319.38549117 24.1875 315.3125 C21.69538113 313.62216728 19.20584349 312.04395835 16.625 310.5 C15.20563463 309.64162808 13.78765459 308.78096111 12.37109375 307.91796875 C11.6735498 307.49306152 10.97600586 307.0681543 10.25732422 306.63037109 C8.20367387 305.32279801 6.24594356 303.93053005 4.28515625 302.48828125 C0.01672914 299.49015527 -0.73458857 300.09046239 -4.76953125 302.83203125 Z " fill="#000000" transform="translate(255.8125,63.6875)"/>
</svg>
